<svg width="134" height="134" viewBox="0 0 134 134" fill="none" xmlns="http://www.w3.org/2000/svg">
<path d="M38.9931 41.7561C38.5158 41.7561 38.0385 41.5472 37.6656 41.1744C37.2927 40.8015 37.0839 40.3391 37.0839 39.8618C37.0839 39.3845 37.2927 38.9072 37.6805 38.5343C38.0683 38.1465 38.5158 37.9526 38.9931 37.9526C39.4704 37.9526 39.9328 38.1614 40.3206 38.5492C41.0962 39.3248 41.0962 40.4137 40.3206 41.1893C39.9477 41.5622 39.4853 41.771 39.008 41.771L38.9931 41.7561Z" fill="white"/>
<path d="M57.4585 23.2756C56.9663 23.2756 56.4741 23.0519 56.0863 22.6641C55.7134 22.2762 55.5195 21.8288 55.5344 21.3366C55.5344 20.8593 55.7731 20.382 56.1609 20.0091C56.5338 19.6511 56.9812 19.4572 57.4436 19.4572C57.9358 19.4572 58.4131 19.6809 58.8159 20.0837C59.1888 20.4715 59.3827 20.9338 59.3677 21.4111C59.3677 21.8884 59.144 22.3508 58.7562 22.7237C58.3833 23.0817 57.9359 23.2756 57.4735 23.2756H57.4585Z" fill="white"/>
<path d="M75.9391 4.81005C75.4469 4.81005 74.9696 4.60123 74.5967 4.21342C74.2238 3.84053 74.0299 3.36323 74.0299 2.88593C74.0299 2.40863 74.2537 1.93133 74.6265 1.55844C74.9994 1.18555 75.4618 0.991638 75.9242 0.991638C76.3866 0.991638 76.8788 1.20046 77.2666 1.60318C78.0422 2.39371 78.0273 3.48255 77.2368 4.24325C76.8639 4.61614 76.4164 4.81005 75.9242 4.81005H75.9391Z" fill="white"/>
<path d="M2.04701 41.7561C1.55479 41.7561 1.07749 41.5323 0.689679 41.1445C-0.0710181 40.354 -0.0561043 39.2652 0.734424 38.4896C1.10732 38.1167 1.55479 37.9228 2.01717 37.9228C2.47955 37.9228 2.98669 38.1465 3.3745 38.5343C3.74739 38.9221 3.9413 39.3845 3.9413 39.8618C3.9413 40.3391 3.71756 40.8015 3.32975 41.1893C2.95686 41.5473 2.50938 41.7412 2.03208 41.7412L2.04701 41.7561Z" fill="white"/>
<path d="M20.5125 23.2756C20.0203 23.2756 19.543 23.0668 19.1701 22.679C18.3945 21.9034 18.4094 20.8145 19.1999 20.0389C19.5728 19.666 20.0352 19.4721 20.4976 19.4721C20.96 19.4721 21.4522 19.6809 21.84 20.0837C22.6156 20.8593 22.6007 21.9481 21.8251 22.7237C21.4522 23.0966 20.9898 23.2905 20.5125 23.2905V23.2756Z" fill="white"/>
<path d="M38.9931 4.81005C38.5158 4.81005 38.0534 4.60123 37.6656 4.22834C36.89 3.45273 36.875 2.36388 37.6656 1.58827C38.0534 1.20046 38.5009 0.991638 38.9931 0.991638C39.4853 0.991638 39.9328 1.20046 40.3206 1.57335C41.0962 2.34896 41.1111 3.43781 40.3355 4.21342C39.9626 4.58631 39.4853 4.79513 39.008 4.79513L38.9931 4.81005Z" fill="white"/>
<path d="M2.04708 60.2217C1.55486 60.2217 1.07755 60.0128 0.704657 59.625C0.331766 59.2521 0.137878 58.7748 0.137878 58.2975C0.137878 57.8202 0.361604 57.3429 0.734495 56.97C1.10739 56.5971 1.56976 56.4033 2.03215 56.4033C2.49453 56.4033 2.98676 56.6121 3.37457 57.0148C4.15018 57.8053 4.13526 58.8942 3.34473 59.6549C2.97184 60.0277 2.50945 60.2217 2.03215 60.2217H2.04708Z" fill="white"/>
<path d="M20.5125 41.7561C20.0054 41.7561 19.4983 41.5324 19.1105 41.1147C18.3647 40.3242 18.4095 39.2353 19.2298 38.4597C19.6027 38.1167 20.0353 37.9377 20.4827 37.9377C20.9899 37.9377 21.4821 38.1614 21.8699 38.594C22.2278 38.9818 22.4068 39.4293 22.3919 39.9066C22.377 40.3988 22.1533 40.8612 21.7505 41.234C21.3926 41.5771 20.9451 41.7561 20.4827 41.7561H20.5125Z" fill="white"/>
<path d="M38.993 23.2756C38.5157 23.2756 38.0384 23.0668 37.6506 22.679C37.2777 22.3061 37.0689 21.8437 37.0689 21.3664C37.0689 20.8891 37.2777 20.4118 37.6655 20.0389C38.0533 19.6511 38.5008 19.4572 38.9781 19.4572C39.4554 19.4572 39.9178 19.666 40.3056 20.0538C41.0812 20.8294 41.0812 21.9183 40.3056 22.6939C39.9327 23.0668 39.4703 23.2756 38.993 23.2756Z" fill="white"/>
<path d="M57.4586 4.81005C56.9664 4.81005 56.4891 4.60123 56.1162 4.21343C55.7433 3.84053 55.5494 3.37814 55.5494 2.90084C55.5494 2.42354 55.7582 1.94624 56.146 1.57335C56.5189 1.20046 56.9813 1.00656 57.4437 1.00656C57.9061 1.00656 58.3983 1.21539 58.7861 1.61811C59.5617 2.39372 59.5468 3.48256 58.7712 4.25817C58.3983 4.63106 57.9359 4.82496 57.4586 4.82496V4.81005Z" fill="white"/>
<path d="M2.047 78.7021C1.53987 78.7021 1.04765 78.4784 0.644927 78.0607C0.286952 77.6729 0.107955 77.2105 0.122871 76.7332C0.137786 76.2559 0.376448 75.7786 0.764255 75.4057C1.13715 75.0627 1.56969 74.8837 2.01716 74.8837C2.52429 74.8837 3.01652 75.1223 3.40433 75.54C3.7623 75.9278 3.94128 76.3753 3.92636 76.8526C3.91145 77.3448 3.68772 77.8072 3.285 78.18C2.92703 78.5231 2.47955 78.7021 2.01716 78.7021H2.047Z" fill="white"/>
<path d="M20.5126 60.2217C20.0204 60.2217 19.5431 60.0128 19.1553 59.6101C18.7824 59.2372 18.5885 58.7599 18.5885 58.2826C18.5885 57.8053 18.8122 57.328 19.2 56.9551C19.5729 56.5822 20.0204 56.3883 20.4977 56.3883C20.975 56.3883 21.4672 56.6121 21.855 56.9999C22.6306 57.7904 22.6008 58.8793 21.8252 59.6399C21.4523 60.0128 21.0048 60.2067 20.5275 60.2067L20.5126 60.2217Z" fill="white"/>
<path d="M75.9242 97.1826C75.4469 97.1826 74.9845 96.9738 74.5967 96.5859C73.8211 95.8103 73.8211 94.7215 74.5967 93.9459C74.9696 93.573 75.4319 93.3642 75.9092 93.3642C76.3865 93.3642 76.8638 93.573 77.2516 93.9459C77.6245 94.3188 77.8334 94.7812 77.8334 95.2585C77.8334 95.7358 77.6245 96.2131 77.2367 96.5859C76.8489 96.9738 76.4015 97.1677 75.9242 97.1677V97.1826Z" fill="white"/>
<path d="M75.9391 78.7021C75.4469 78.7021 74.9696 78.4784 74.5668 78.0757C74.1939 77.6879 74 77.2255 74.015 76.7482C74.015 76.2709 74.2387 75.8085 74.6265 75.4207C74.9994 75.0627 75.4469 74.8688 75.9093 74.8688C76.4015 74.8688 76.8937 75.0925 77.2815 75.4804C77.6544 75.8682 77.8483 76.3156 77.8334 76.8078C77.8334 77.2851 77.5947 77.7624 77.2069 78.1353C76.834 78.4933 76.3865 78.6872 75.9242 78.6872L75.9391 78.7021Z" fill="white"/>
<path d="M57.4586 97.1826C56.9813 97.1826 56.5189 96.9738 56.1311 96.5859C55.3555 95.8103 55.3555 94.7215 56.1311 93.9459C56.504 93.573 56.9664 93.3642 57.4437 93.3642C57.921 93.3642 58.3983 93.573 58.7861 93.9608C59.159 94.3337 59.3678 94.7961 59.3678 95.2734C59.3678 95.7507 59.159 96.228 58.7712 96.6009C58.3834 96.9738 57.9359 97.1826 57.4586 97.1826Z" fill="white"/>
<path d="M75.9241 60.2366C75.4468 60.2366 74.9844 60.0277 74.5966 59.6548C73.821 58.8792 73.8061 57.7904 74.5817 57.0148C74.9546 56.6419 75.4319 56.4331 75.9092 56.4331C76.3865 56.4331 76.8638 56.6419 77.2367 57.0148C77.6096 57.3877 77.8184 57.865 77.8184 58.3423C77.8184 58.8196 77.6096 59.2969 77.2367 59.6698C76.8489 60.0576 76.4014 60.2664 75.9092 60.2664L75.9241 60.2366Z" fill="white"/>
<path d="M57.4586 78.7021C56.9365 78.7021 56.4145 78.4486 56.0117 78.0011C55.6687 77.6282 55.5046 77.1658 55.5345 76.7034C55.5643 76.2112 55.8029 75.7339 56.2206 75.361C56.5785 75.0478 56.9962 74.8837 57.4287 74.8837C57.9657 74.8837 58.4728 75.1224 58.8606 75.5698C59.5766 76.3753 59.502 77.4641 58.6518 78.2248C58.2938 78.5381 57.8762 78.7021 57.4437 78.7021H57.4586Z" fill="white"/>
<path d="M38.9782 97.1826C38.486 97.1826 38.0087 96.9588 37.6209 96.571C37.248 96.1832 37.0541 95.7209 37.0541 95.2436C37.0541 94.7663 37.2778 94.3039 37.6656 93.9161C38.0385 93.5581 38.486 93.3642 38.9633 93.3642C39.4406 93.3642 39.9328 93.573 40.3206 93.9757C40.6935 94.3486 40.8874 94.8259 40.8725 95.3032C40.8725 95.7805 40.6487 96.2578 40.2609 96.6307C39.888 97.0036 39.4406 97.1975 38.9782 97.1975V97.1826Z" fill="white"/>
<path d="M75.9242 41.7561C75.4469 41.7561 74.9994 41.5622 74.6266 41.1893C73.836 40.4137 73.8062 39.3248 74.5669 38.5492C74.9547 38.1614 75.432 37.9377 75.9093 37.9377C76.3866 37.9377 76.8341 38.1316 77.207 38.5045C77.9975 39.2801 78.0273 40.3689 77.2666 41.1445C76.8788 41.5323 76.4015 41.7561 75.9242 41.7561Z" fill="white"/>
<path d="M57.4586 60.2366C56.9664 60.2366 56.4891 60.0128 56.1013 59.625C55.7284 59.2372 55.5345 58.7748 55.5345 58.2975C55.5345 57.8202 55.7582 57.3578 56.146 56.97C56.5189 56.6121 56.9664 56.4182 57.4437 56.4182C57.921 56.4182 58.4132 56.6419 58.801 57.0297C59.5617 57.8202 59.5468 58.9091 58.7563 59.6698C58.3834 60.0427 57.9359 60.2366 57.4735 60.2366H57.4586Z" fill="white"/>
<path d="M38.9782 78.7021C38.486 78.7021 38.0236 78.4933 37.6358 78.0906C36.8602 77.3001 36.8751 76.2261 37.6507 75.4505C38.0236 75.0776 38.4859 74.8837 38.9483 74.8837C39.4107 74.8837 39.9179 75.0925 40.2908 75.4804C41.0664 76.256 41.0514 77.3448 40.2609 78.1204C39.888 78.4933 39.4256 78.6872 38.9633 78.6872L38.9782 78.7021Z" fill="white"/>
<path d="M20.5126 97.1826C20.0353 97.1826 19.5729 96.9737 19.1851 96.6009C18.4095 95.8252 18.3946 94.7364 19.1702 93.9608C19.5431 93.5879 20.0204 93.3791 20.4977 93.3791C20.975 93.3791 21.4374 93.5879 21.8252 93.9608C22.6008 94.7364 22.6157 95.8252 21.8252 96.6009C21.4374 96.9887 20.9899 97.1975 20.4977 97.1975L20.5126 97.1826Z" fill="white"/>
<path d="M75.9241 23.2905C75.4468 23.2905 74.9695 23.0817 74.5817 22.679C73.8061 21.8884 73.821 20.8145 74.6116 20.0389C74.9844 19.666 75.4468 19.4721 75.9241 19.4721C76.4014 19.4721 76.8936 19.6809 77.2665 20.0687C77.6394 20.4416 77.8333 20.9189 77.8333 21.3962C77.8333 21.8735 77.6096 22.3508 77.2367 22.7237C76.8638 23.0966 76.4014 23.2905 75.939 23.2905H75.9241Z" fill="white"/>
<path d="M57.4585 41.7561C56.9663 41.7561 56.504 41.5473 56.1161 41.1445C55.3405 40.3689 55.3555 39.2801 56.146 38.5045C56.5189 38.1316 56.9812 37.9377 57.4585 37.9377C57.9358 37.9377 58.4281 38.1465 58.801 38.5343C59.1739 38.9072 59.3677 39.3845 59.3677 39.8618C59.3677 40.3391 59.144 40.8164 58.7711 41.1893C58.3982 41.5622 57.9359 41.7561 57.4735 41.7561H57.4585Z" fill="white"/>
<path d="M38.9931 60.2366C38.486 60.2366 37.9937 59.9979 37.6059 59.5803C37.248 59.1925 37.069 58.745 37.0839 58.2677C37.0988 57.7755 37.3225 57.3131 37.7253 56.9402C38.0832 56.5972 38.5307 56.4182 38.9931 56.4182C39.5002 56.4182 40.0073 56.6419 40.3951 57.0595C40.7531 57.4324 40.9321 57.9097 40.9172 58.387C40.9023 58.8643 40.6636 59.3416 40.2758 59.7145C39.9029 60.0576 39.4704 60.2366 39.0229 60.2366H38.9931Z" fill="white"/>
<path d="M20.5125 78.7021C20.0352 78.7021 19.5728 78.4933 19.185 78.1055C18.4094 77.3299 18.4094 76.2411 19.185 75.4654C19.5579 75.0926 20.0203 74.8837 20.4976 74.8837C20.9749 74.8837 21.4522 75.0925 21.84 75.4804C22.2279 75.8682 22.4218 76.3156 22.4218 76.7929C22.4218 77.2702 22.2129 77.7475 21.8251 78.1204C21.4373 78.5082 20.9898 78.7021 20.5125 78.7021Z" fill="white"/>
<path d="M2.03206 97.1826C1.53985 97.1826 1.07747 96.9738 0.689666 96.571C-0.0859468 95.7954 -0.0710394 94.7066 0.704574 93.931C1.07746 93.5581 1.53986 93.3642 2.01716 93.3642C2.49446 93.3642 2.98666 93.573 3.35956 93.9608C3.73245 94.3337 3.92636 94.7961 3.92636 95.2734C3.92636 95.7507 3.71755 96.228 3.32974 96.6009C2.95685 96.9738 2.49445 97.1677 2.03206 97.1677V97.1826Z" fill="white"/>
<path d="M131.366 41.7561C130.888 41.7561 130.411 41.5472 130.023 41.1744C129.65 40.8015 129.441 40.3391 129.441 39.8618C129.441 39.3845 129.65 38.9072 130.038 38.5343C130.426 38.1465 130.873 37.9526 131.351 37.9526C131.828 37.9526 132.29 38.1614 132.678 38.5492C133.454 39.3248 133.454 40.4137 132.678 41.1893C132.305 41.5622 131.843 41.771 131.366 41.771V41.7561Z" fill="white"/>
<path d="M94.4195 4.81005C93.9422 4.81005 93.4649 4.60123 93.0771 4.21342C92.7042 3.84053 92.4954 3.37814 92.4954 2.90084C92.4954 2.42354 92.7042 1.94624 93.092 1.57335C93.4798 1.20046 93.9273 0.991638 94.4046 0.991638C94.8819 0.991638 95.3443 1.20046 95.7321 1.58827C96.5077 2.36388 96.5077 3.45273 95.7321 4.22834C95.3592 4.60123 94.8968 4.81005 94.4195 4.81005Z" fill="white"/>
<path d="M94.4195 23.2756C93.8826 23.2756 93.3754 23.0369 92.9876 22.5895C92.2717 21.784 92.3463 20.6952 93.1965 19.9345C93.5544 19.6213 93.9721 19.4572 94.4046 19.4572C94.9267 19.4572 95.4338 19.7108 95.8514 20.1582C96.1945 20.5311 96.3586 20.9935 96.3287 21.4559C96.2989 21.9481 96.0603 22.4254 95.6426 22.7983C95.2846 23.1115 94.867 23.2756 94.4345 23.2756H94.4195Z" fill="white"/>
<path d="M94.4195 41.7561C93.9273 41.7561 93.45 41.5323 93.0622 41.1445C92.3015 40.354 92.3164 39.2652 93.1069 38.4896C93.4798 38.1167 93.9273 37.9228 94.3897 37.9228C94.8521 37.9228 95.3592 38.1465 95.747 38.5343C96.1199 38.9221 96.3138 39.3845 96.3138 39.8618C96.3138 40.3391 96.09 40.8015 95.7022 41.1893C95.3293 41.5473 94.8819 41.7412 94.4046 41.7412L94.4195 41.7561Z" fill="white"/>
<path d="M112.885 23.2756C112.393 23.2756 111.916 23.0668 111.543 22.679C110.767 21.9034 110.782 20.8145 111.572 20.0389C111.945 19.666 112.408 19.4721 112.87 19.4721C113.333 19.4721 113.825 19.6809 114.213 20.0687C114.988 20.8444 114.973 21.9332 114.198 22.7088C113.825 23.0817 113.362 23.2756 112.9 23.2756H112.885Z" fill="white"/>
<path d="M94.4195 60.2217C93.9273 60.2217 93.45 60.0128 93.0771 59.625C92.7042 59.2521 92.5103 58.7898 92.5103 58.3125C92.5103 57.8352 92.7341 57.3578 93.107 56.97C93.4798 56.5971 93.9422 56.4033 94.4046 56.4033C94.867 56.4033 95.3592 56.6121 95.747 57.0148C96.5226 57.8053 96.5077 58.8942 95.7172 59.6549C95.3443 60.0277 94.8819 60.2217 94.4046 60.2217H94.4195Z" fill="white"/>
<path d="M112.9 41.7561C112.393 41.7561 111.886 41.5324 111.498 41.1147C111.14 40.7269 110.961 40.2645 110.976 39.7872C110.991 39.3099 111.229 38.8326 111.617 38.4597C111.99 38.1167 112.423 37.9377 112.87 37.9377C113.377 37.9377 113.869 38.1614 114.257 38.594C114.615 38.9818 114.794 39.4293 114.779 39.9066C114.764 40.3988 114.541 40.8612 114.138 41.234C113.78 41.5771 113.333 41.7561 112.87 41.7561H112.9Z" fill="white"/>
<path d="M94.4195 78.7021C93.9124 78.7021 93.4201 78.4784 93.0174 78.0607C92.2716 77.2702 92.3164 76.1814 93.1367 75.4057C93.5096 75.0627 93.9422 74.8837 94.3897 74.8837C94.8968 74.8837 95.389 75.1223 95.7768 75.54C96.1348 75.9278 96.3138 76.3753 96.2989 76.8526C96.2989 77.3448 96.0602 77.8072 95.6575 78.18C95.2995 78.5231 94.8521 78.7021 94.3897 78.7021H94.4195Z" fill="white"/>
<path d="M112.885 60.2217C112.393 60.2217 111.916 60.0128 111.528 59.6101C111.155 59.2372 110.961 58.7599 110.961 58.2826C110.961 57.8053 111.185 57.328 111.572 56.9551C111.945 56.5822 112.393 56.3883 112.87 56.3883C113.347 56.3883 113.84 56.6121 114.227 56.9999C114.6 57.3877 114.794 57.8501 114.794 58.3274C114.794 58.8047 114.571 59.2671 114.198 59.6549C113.825 60.0277 113.377 60.2217 112.9 60.2217H112.885Z" fill="white"/>
<path d="M131.366 97.1826C130.873 97.1826 130.396 96.9588 130.008 96.571C129.248 95.7805 129.262 94.6916 130.053 93.9309C130.426 93.573 130.873 93.3791 131.351 93.3791C131.828 93.3791 132.32 93.5879 132.708 93.9906C133.081 94.3635 133.275 94.8408 133.26 95.3181C133.26 95.7954 133.036 96.2727 132.648 96.6456C132.275 97.0185 131.828 97.2124 131.366 97.2124V97.1826Z" fill="white"/>
<path d="M131.351 78.7021C130.858 78.7021 130.396 78.4933 130.008 78.0905C129.233 77.3149 129.248 76.2261 130.023 75.4505C130.396 75.0776 130.858 74.8837 131.321 74.8837C131.783 74.8837 132.29 75.0925 132.663 75.4803C133.439 76.2559 133.424 77.3448 132.633 78.1204C132.261 78.4933 131.798 78.6872 131.336 78.6872L131.351 78.7021Z" fill="white"/>
<path d="M112.885 97.1826C112.408 97.1826 111.945 96.9737 111.573 96.6009C110.797 95.8252 110.782 94.7364 111.558 93.9608C111.931 93.5879 112.408 93.3791 112.885 93.3791C113.362 93.3791 113.825 93.5879 114.213 93.9608C114.988 94.7364 115.003 95.8252 114.213 96.6009C113.825 96.9887 113.377 97.1975 112.885 97.1975V97.1826Z" fill="white"/>
<path d="M131.366 60.2365C130.858 60.2365 130.366 59.9979 129.978 59.5802C129.62 59.1924 129.441 58.745 129.456 58.2677C129.471 57.7755 129.695 57.3131 130.098 56.9402C130.456 56.5971 130.903 56.4181 131.366 56.4181C131.873 56.4181 132.38 56.6419 132.768 57.0595C133.126 57.4324 133.305 57.9097 133.29 58.387C133.275 58.8643 133.036 59.3416 132.648 59.7145C132.275 60.0575 131.843 60.2365 131.395 60.2365H131.366Z" fill="white"/>
<path d="M112.885 78.7021C112.408 78.7021 111.945 78.4933 111.558 78.1054C110.782 77.3298 110.782 76.241 111.558 75.4654C111.93 75.0925 112.393 74.8837 112.87 74.8837C113.347 74.8837 113.825 75.0925 114.213 75.4803C114.585 75.8532 114.794 76.3156 114.794 76.7929C114.794 77.2702 114.585 77.7475 114.198 78.1204C113.81 78.5082 113.362 78.7021 112.885 78.7021Z" fill="white"/>
<path d="M94.4046 97.1825C93.9124 97.1825 93.45 96.9737 93.0622 96.571C92.2866 95.7954 92.3015 94.7065 93.0771 93.9309C93.45 93.558 93.9124 93.3641 94.3897 93.3641C94.867 93.3641 95.3592 93.5729 95.7321 93.9608C96.105 94.3336 96.2989 94.8109 96.2989 95.2882C96.2989 95.7655 96.0752 96.2428 95.7023 96.6157C95.3294 96.9886 94.867 97.1825 94.4046 97.1825Z" fill="white"/>
<path d="M38.993 115.365C38.5157 115.365 38.0384 115.156 37.6655 114.783C37.2926 114.41 37.0838 113.948 37.0838 113.47C37.0838 112.993 37.2926 112.516 37.6804 112.143C38.0682 111.755 38.5157 111.561 38.993 111.561C39.4703 111.561 39.9327 111.77 40.3205 112.158C41.0961 112.933 41.0961 114.022 40.3205 114.798C39.9476 115.171 39.4852 115.38 39.0079 115.38L38.993 115.365Z" fill="white"/>
<path d="M20.5126 115.365C20.0054 115.365 19.4983 115.141 19.1105 114.723C18.7525 114.336 18.5735 113.873 18.5884 113.396C18.6034 112.919 18.842 112.441 19.2298 112.068C19.6027 111.725 20.0353 111.546 20.4827 111.546C20.9899 111.546 21.4821 111.77 21.8699 112.203C22.2279 112.59 22.4069 113.038 22.3919 113.515C22.377 114.007 22.1533 114.47 21.7506 114.843C21.3926 115.186 20.9451 115.365 20.4976 115.365H20.5126Z" fill="white"/>
<path d="M75.9242 133.845C75.4469 133.845 74.9845 133.636 74.5967 133.264C73.8211 132.488 73.8062 131.399 74.5818 130.623C74.9547 130.251 75.432 130.042 75.9093 130.042C76.3866 130.042 76.8639 130.251 77.2368 130.623C77.6097 130.996 77.8185 131.474 77.8185 131.951C77.8185 132.428 77.6097 132.906 77.2368 133.278C76.849 133.666 76.4015 133.875 75.9093 133.875L75.9242 133.845Z" fill="white"/>
<path d="M75.9242 115.38C75.4469 115.38 74.9994 115.186 74.6266 114.813C73.836 114.037 73.8062 112.948 74.5669 112.173C74.9398 111.785 75.432 111.561 75.9093 111.561C76.3866 111.561 76.8341 111.755 77.207 112.128C77.9975 112.904 78.0273 113.992 77.2666 114.768C76.8788 115.156 76.4015 115.38 75.9242 115.38Z" fill="white"/>
<path d="M57.4587 133.845C56.9664 133.845 56.4891 133.621 56.1013 133.234C55.7284 132.846 55.5345 132.383 55.5345 131.906C55.5345 131.429 55.7583 130.966 56.1461 130.579C56.519 130.221 56.9664 130.027 57.4437 130.027C57.921 130.027 58.4133 130.251 58.8011 130.638C59.5618 131.429 59.5469 132.518 58.7563 133.293C58.3834 133.666 57.936 133.86 57.4736 133.86L57.4587 133.845Z" fill="white"/>
<path d="M57.4587 115.38C56.9664 115.38 56.5041 115.171 56.1163 114.768C55.3407 113.978 55.3556 112.889 56.1461 112.128C56.519 111.755 56.9814 111.561 57.4587 111.561C57.936 111.561 58.4282 111.77 58.8011 112.158C59.174 112.531 59.3679 112.993 59.3679 113.47C59.3679 113.948 59.1441 114.425 58.7712 114.798C58.3984 115.171 57.936 115.365 57.4736 115.365L57.4587 115.38Z" fill="white"/>
<path d="M38.9931 133.845C38.486 133.845 37.9937 133.621 37.6059 133.189C37.248 132.801 37.069 132.354 37.0839 131.876C37.0988 131.384 37.3225 130.922 37.7253 130.549C38.0832 130.206 38.5307 130.027 38.9782 130.027C39.4853 130.027 39.9924 130.251 40.3802 130.668C40.7382 131.056 40.9172 131.518 40.9023 131.996C40.8874 132.473 40.6487 132.95 40.2609 133.323C39.888 133.666 39.4555 133.845 39.008 133.845H38.9931Z" fill="white"/>
<path d="M94.4195 115.365C93.9273 115.365 93.45 115.141 93.0622 114.753C92.3015 113.963 92.3164 112.874 93.1069 112.098C93.4798 111.725 93.9273 111.531 94.3897 111.531C94.8521 111.531 95.3592 111.755 95.747 112.143C96.5077 112.933 96.4928 114.022 95.7022 114.783C95.3293 115.141 94.8819 115.335 94.4046 115.335L94.4195 115.365Z" fill="white"/>
<path d="M94.4195 133.845C93.9273 133.845 93.45 133.636 93.0771 133.249C92.7042 132.876 92.5103 132.413 92.5103 131.936C92.5103 131.459 92.7341 130.981 93.107 130.609C93.4798 130.236 93.9422 130.042 94.4046 130.042C94.867 130.042 95.3592 130.251 95.747 130.653C96.5226 131.444 96.5077 132.533 95.7172 133.293C95.3443 133.666 94.8819 133.86 94.4046 133.86L94.4195 133.845Z" fill="white"/>
<path d="M112.9 115.365C112.393 115.365 111.886 115.141 111.498 114.723C111.14 114.35 110.961 113.873 110.976 113.396C110.991 112.919 111.229 112.441 111.617 112.068C111.99 111.725 112.423 111.546 112.87 111.546C113.377 111.546 113.869 111.785 114.257 112.203C114.615 112.59 114.794 113.038 114.779 113.515C114.764 114.007 114.541 114.47 114.138 114.843C113.78 115.186 113.333 115.365 112.885 115.365H112.9Z" fill="white"/>
</svg>
