<svg width="113" height="112" viewBox="0 0 113 112" fill="none" xmlns="http://www.w3.org/2000/svg">
<g style="mix-blend-mode:overlay" opacity="0.45">
<path d="M7.89008 28.4C10.3901 23.95 13.5001 19.85 17.1501 16.2C20.8001 12.55 24.9001 9.44 29.3501 6.94L7.89008 28.4Z" fill="white"/>
<path d="M0.950058 50.91C1.05006 49.8 1.18006 48.68 1.34006 47.58L48.5201 0.39C49.6201 0.23 50.7401 0.09 51.8501 0L0.940063 50.91H0.950058Z" fill="white"/>
<path d="M1.62009 65.8C1.47009 64.97 1.34009 64.11 1.22009 63.26L64.2001 0.270004C65.0501 0.380004 65.9101 0.520004 66.7401 0.670004L1.61009 65.8H1.62009Z" fill="white"/>
<path d="M5.19009 77.79C4.90009 77.1 4.6201 76.4 4.3501 75.69L76.6401 3.39999C77.3401 3.66999 78.0501 3.94999 78.7401 4.23999L5.19009 77.79Z" fill="white"/>
<path d="M10.73 87.82C10.33 87.25 9.94005 86.66 9.55005 86.06L87 8.60001C87.6 8.99001 88.19 9.38001 88.76 9.78001L10.72 87.82H10.73Z" fill="white"/>
<path d="M17.89 96.22C17.64 95.98 17.39 95.74 17.15 95.49C16.9 95.24 16.66 95 16.42 94.75L95.69 15.47C95.94 15.71 96.19 15.95 96.43 16.2C96.68 16.45 96.9201 16.69 97.16 16.94L17.89 96.21V96.22Z" fill="white"/>
<path d="M26.5901 103.09C25.9801 102.7 25.3901 102.31 24.8301 101.91L102.86 23.87C103.25 24.43 103.64 25.02 104.04 25.63L26.5901 103.08V103.09Z" fill="white"/>
<path d="M36.9401 108.29C36.2301 108.02 35.5301 107.74 34.8401 107.45L108.4 33.9C108.69 34.59 108.98 35.29 109.24 36L36.9401 108.3V108.29Z" fill="white"/>
<path d="M49.3801 111.42C48.5301 111.31 47.6801 111.17 46.8401 111.02L111.97 45.89C112.12 46.73 112.25 47.58 112.37 48.43L49.3901 111.41L49.3801 111.42Z" fill="white"/>
<path d="M112.64 60.79C112.54 61.91 112.41 63.02 112.25 64.12L65.0701 111.3C63.9701 111.46 62.8501 111.6 61.7401 111.69L112.65 60.78L112.64 60.79Z" fill="white"/>
<path d="M105.7 83.29C103.2 87.74 100.09 91.84 96.44 95.49C92.79 99.14 88.6901 102.25 84.2401 104.75L105.7 83.29Z" fill="white"/>
</g>
</svg>
